<svg xmlns="http://www.w3.org/2000/svg" xmlns:xlink="http://www.w3.org/1999/xlink" width="1080" zoomAndPan="magnify" viewBox="0 0 810 809.999993" height="1080" preserveAspectRatio="xMidYMid meet" version="1.0"><defs><clipPath id="534a128107"><path d="M 263.027344 243 L 547.277344 243 L 547.277344 567 L 263.027344 567 Z M 263.027344 243 " clip-rule="nonzero"/></clipPath></defs><g clip-path="url(#534a128107)"><path fill="#e44d26" d="M 288.832031 533.898438 L 262.949219 243.914062 L 547.359375 243.914062 L 521.453125 533.859375 L 404.972656 566.097656 Z M 288.832031 533.898438 " fill-opacity="1" fill-rule="nonzero"/></g><path fill="#f16529" d="M 499.269531 515.390625 L 521.414062 267.625 L 405.152344 267.625 L 405.152344 541.460938 Z M 499.269531 515.390625 " fill-opacity="1" fill-rule="nonzero"/><path fill="#ebebeb" d="M 405.03125 303.1875 L 315.867188 303.1875 L 325.472656 410.738281 L 405.152344 410.738281 L 405.152344 375.175781 L 358.042969 375.175781 L 354.785156 338.757812 L 405.152344 338.757812 L 405.152344 303.1875 Z M 405.152344 467.425781 L 405.003906 467.464844 L 365.347656 456.773438 L 362.828125 428.410156 L 327.066406 428.410156 L 332.054688 484.25 L 404.992188 504.386719 L 405.152344 504.335938 Z M 405.152344 467.425781 " fill-opacity="1" fill-rule="nonzero"/><path fill="#ffffff" d="M 405.03125 410.738281 L 448.878906 410.738281 L 444.847656 456.851562 L 405.132812 467.554688 L 405.132812 504.558594 L 478.132812 484.351562 L 487.910156 375.15625 L 405.152344 375.15625 Z M 493.371094 312.730469 L 494.21875 303.1875 L 405.011719 303.1875 L 405.011719 338.75 L 491.011719 338.75 L 491.71875 330.753906 Z M 493.371094 312.730469 " fill-opacity="1" fill-rule="nonzero"/></svg>