<svg xmlns="http://www.w3.org/2000/svg" xmlns:xlink="http://www.w3.org/1999/xlink" width="1080" zoomAndPan="magnify" viewBox="0 0 810 809.999993" height="1080" preserveAspectRatio="xMidYMid meet" version="1.0"><path fill="#ffd600" d="M 243 243 L 567 243 L 567 567 L 243 567 Z M 243 243 " fill-opacity="1" fill-rule="nonzero"/><path fill="#000001" d="M 454.84375 485.523438 C 461.070312 495.640625 467.839844 505.332031 482.175781 505.332031 C 494.21875 505.332031 500.535156 499.347656 500.535156 491.066406 C 500.535156 481.15625 494 477.640625 480.753906 471.871094 L 473.488281 468.773438 C 452.527344 459.882812 438.589844 448.738281 438.589844 425.203125 C 438.589844 403.515625 455.191406 387.007812 481.140625 387.007812 C 499.617188 387.007812 512.890625 393.40625 522.46875 410.164062 L 499.84375 424.628906 C 494.863281 415.738281 489.484375 412.234375 481.140625 412.234375 C 472.625 412.234375 467.234375 417.609375 467.234375 424.628906 C 467.234375 433.304688 472.636719 436.816406 485.101562 442.1875 L 492.363281 445.285156 C 517.066406 455.804688 531 466.550781 531 490.707031 C 531 516.734375 510.445312 531 482.851562 531 C 455.859375 531 440.53125 517.453125 432 500.6875 Z M 350.566406 486.261719 C 355.121094 494.414062 362.042969 500.6875 371.996094 500.6875 C 381.519531 500.6875 387 496.925781 387 482.300781 L 387 387 L 416.996094 387 L 416.996094 486.910156 C 416.996094 517.210938 399.421875 531 373.753906 531 C 350.558594 531 333.820312 515.285156 326.996094 500.6875 Z M 350.566406 486.261719 " fill-opacity="1" fill-rule="nonzero"/></svg>